<?xml version="1.0" standalone="no"?>
<!DOCTYPE svg PUBLIC "-//W3C//DTD SVG 20010904//EN"
 "http://www.w3.org/TR/2001/REC-SVG-20010904/DTD/svg10.dtd">
<svg version="1.0" xmlns="http://www.w3.org/2000/svg"
 width="292.000000pt" height="292.000000pt" viewBox="0 0 292.000000 292.000000"
 preserveAspectRatio="xMidYMid meet">

<g transform="translate(0.000000,292.000000) scale(0.100000,-0.100000)"
fill="#000000" stroke="none">
<path d="M1444 2761 c-18 -4 -47 -17 -65 -29 -60 -37 -1334 -1323 -1355 -1367
-26 -56 -24 -157 4 -210 12 -23 205 -224 464 -482 469 -469 486 -482 577 -483
104 0 92 -10 564 459 248 248 437 443 437 453 0 23 -35 58 -57 58 -10 0 -207
-189 -438 -419 -231 -230 -430 -424 -442 -430 -30 -15 -89 -14 -121 3 -15 8
-221 210 -459 448 -461 463 -457 458 -439 535 5 19 221 242 674 696 l667 667
447 0 c498 0 509 -1 548 -65 19 -30 20 -49 20 -289 l0 -256 -142 0 c-122 0
-186 9 -168 22 3 2 21 16 41 31 72 52 98 158 60 242 -31 70 -113 125 -185 125
-44 0 -104 -27 -141 -65 -38 -37 -65 -97 -65 -141 0 -72 56 -154 124 -185 22
-10 51 -34 66 -55 14 -21 45 -48 69 -61 40 -21 56 -23 193 -23 l148 0 0 -151
0 -152 -95 -96 c-60 -61 -95 -105 -95 -118 0 -28 26 -53 53 -53 30 0 211 182
232 232 11 28 15 75 15 188 l0 150 75 0 c77 0 133 16 168 48 58 52 75 163 35
234 -35 62 -93 91 -195 96 l-83 5 0 117 c0 175 -32 245 -132 294 l-53 25 -460
5 c-253 3 -474 2 -491 -3z m692 -425 l28 -23 -31 -16 c-36 -19 -93 -82 -93
-102 0 -23 -16 -18 -39 11 -70 89 50 204 135 130z m602 -142 c32 -22 44 -58
31 -91 -16 -42 -38 -52 -116 -53 l-73 0 0 80 0 80 68 0 c46 0 75 -5 90 -16z"/>
<path d="M1097 2072 c-315 -315 -330 -335 -295 -370 35 -35 56 -19 345 270
l283 283 315 -315 c173 -173 315 -319 315 -325 0 -13 -972 -985 -985 -985 -6
0 -152 142 -325 315 l-315 315 68 68 c74 74 85 108 45 136 -12 9 -27 16 -32
16 -5 0 -53 -44 -107 -97 -75 -73 -99 -103 -99 -123 0 -20 75 -100 373 -398
236 -236 380 -372 392 -372 27 0 1125 1098 1125 1125 0 12 -136 156 -372 392
-294 294 -378 373 -398 373 -20 0 -92 -67 -333 -308z"/>
<path d="M1240 1868 c-115 -58 -123 -203 -17 -282 21 -16 43 -21 87 -21 66 0
99 18 138 75 31 46 31 124 -1 171 -24 37 -97 79 -137 79 -14 0 -46 -10 -70
-22z m95 -94 c27 -11 38 -53 20 -80 -35 -54 -119 -11 -96 49 13 33 40 44 76
31z"/>
<path d="M652 1624 c-24 -17 -30 -62 -10 -82 7 -7 24 -12 38 -12 33 0 50 17
50 51 0 24 -30 59 -50 59 -3 0 -16 -7 -28 -16z"/>
<path d="M1370 1531 c-91 -26 -227 -65 -303 -86 -116 -32 -141 -42 -150 -62
-16 -35 5 -73 40 -73 15 0 158 36 318 81 286 79 325 95 325 133 0 19 -23 43
-45 49 -11 2 -94 -17 -185 -42z"/>
<path d="M1214 1301 c-62 -28 -89 -73 -89 -148 0 -47 5 -68 21 -89 53 -72 131
-92 207 -55 50 24 76 57 88 110 22 98 -63 202 -166 201 -11 0 -38 -9 -61 -19z
m106 -111 c24 -24 25 -38 4 -68 -16 -24 -44 -28 -75 -12 -38 21 -13 100 33
100 10 0 27 -9 38 -20z"/>
<path d="M2142 1304 c-41 -29 -19 -94 33 -94 24 0 55 33 55 57 0 7 -9 22 -20
33 -24 24 -38 25 -68 4z"/>
</g>
</svg>
