<?xml version="1.0" standalone="no"?>
<!DOCTYPE svg PUBLIC "-//W3C//DTD SVG 20010904//EN"
 "http://www.w3.org/TR/2001/REC-SVG-20010904/DTD/svg10.dtd">
<svg version="1.0" xmlns="http://www.w3.org/2000/svg"
 width="292.000000pt" height="292.000000pt" viewBox="0 0 292.000000 292.000000"
 preserveAspectRatio="xMidYMid meet">

<g transform="translate(0.000000,292.000000) scale(0.100000,-0.100000)"
fill="#000000" stroke="none">
<path d="M1150 2604 c-316 -174 -578 -321 -582 -328 -4 -6 -8 -182 -8 -391
l-1 -380 -97 -47 c-53 -26 -123 -68 -155 -95 -253 -211 -337 -551 -215 -861
27 -67 63 -89 98 -57 26 23 25 35 -4 109 -129 328 38 707 368 831 367 138 772
-84 850 -467 31 -149 14 -277 -55 -417 -104 -210 -332 -351 -569 -351 -80 0
-205 27 -260 55 -55 28 -111 -5 -95 -56 8 -24 81 -59 177 -85 85 -24 269 -24
357 0 197 53 366 180 465 351 21 36 42 65 47 65 4 0 61 -29 126 -65 65 -36
127 -65 137 -65 22 0 1131 606 1158 633 16 15 18 40 18 230 0 195 -2 215 -18
230 -26 23 -58 21 -76 -5 -13 -18 -16 -56 -16 -208 l0 -185 -437 -240 c-240
-132 -468 -257 -505 -277 l-68 -37 2 557 3 557 159 87 c88 49 163 88 168 88 4
0 8 -71 8 -158 0 -166 4 -182 46 -182 22 0 273 135 286 154 4 6 8 94 8 196 l0
185 159 88 c87 48 161 87 165 87 3 0 6 -70 6 -155 0 -142 2 -157 20 -175 25
-25 45 -25 70 0 19 19 20 33 20 233 0 191 -2 216 -17 229 -21 19 -1147 638
-1160 638 -4 0 -267 -143 -583 -316z m1083 -74 c270 -149 495 -274 499 -278 4
-4 -64 -47 -151 -95 l-159 -87 -496 272 c-273 150 -497 277 -498 283 -1 9 287
174 305 175 4 0 229 -122 500 -270z m-428 -242 c272 -149 495 -275 495 -280 0
-4 -28 -22 -62 -39 l-63 -30 -497 273 c-274 150 -498 276 -498 280 0 8 101 67
117 67 7 1 235 -121 508 -271z m-257 -125 c268 -146 493 -272 500 -278 11 -10
-16 -29 -145 -100 -87 -49 -162 -88 -168 -88 -5 0 -234 123 -508 273 -317 175
-494 277 -488 283 12 12 303 174 314 176 5 1 228 -119 495 -266z m-368 -287
l495 -273 3 -557 2 -557 -77 42 c-106 57 -104 55 -91 109 6 25 11 92 11 150 0
281 -151 528 -405 660 -109 57 -207 80 -340 80 l-108 0 0 310 c0 171 3 310 8
310 4 -1 230 -124 502 -274z m1190 -93 l0 -128 -63 -33 c-34 -18 -65 -32 -69
-32 -5 0 -8 57 -8 128 l0 127 58 32 c31 17 63 32 70 32 9 1 12 -31 12 -126z"/>
<path d="M2833 1677 c-31 -13 -38 -43 -19 -72 20 -31 56 -32 81 -5 37 41 -11
100 -62 77z"/>
<path d="M483 1027 c-46 -46 -83 -91 -83 -101 0 -22 153 -182 180 -189 28 -7
60 20 60 51 0 15 -12 38 -27 54 l-27 28 185 0 c155 0 189 -3 219 -18 107 -53
107 -211 0 -264 -28 -14 -61 -18 -162 -18 -125 0 -128 -1 -144 -25 -15 -23
-15 -27 0 -50 22 -34 49 -38 185 -33 106 5 123 8 172 34 169 91 185 313 32
430 -58 44 -116 54 -315 54 l-172 0 27 28 c44 46 32 102 -22 102 -18 0 -48
-24 -108 -83z"/>
<path d="M258 339 c-21 -12 -24 -59 -6 -77 15 -15 61 -15 76 0 15 15 15 61 0
76 -15 15 -47 15 -70 1z"/>
</g>
</svg>
