<?xml version="1.0" standalone="no"?>
<!DOCTYPE svg PUBLIC "-//W3C//DTD SVG 20010904//EN"
 "http://www.w3.org/TR/2001/REC-SVG-20010904/DTD/svg10.dtd">
<svg version="1.0" xmlns="http://www.w3.org/2000/svg"
 width="292.000000pt" height="292.000000pt" viewBox="0 0 292.000000 292.000000"
 preserveAspectRatio="xMidYMid meet">

<g transform="translate(0.000000,292.000000) scale(0.100000,-0.100000)"
fill="#000000" stroke="none">
<path d="M1312 2910 c-137 -25 -243 -82 -342 -186 -122 -128 -176 -275 -167
-449 9 -169 69 -297 194 -414 117 -110 253 -164 413 -164 168 0 306 59 430
183 188 187 232 457 114 696 -42 86 -131 187 -211 240 -116 77 -299 117 -431
94z m262 -129 c348 -122 450 -568 190 -829 -197 -197 -508 -199 -705 -3 -103
103 -149 212 -149 356 0 145 52 268 156 364 67 63 144 106 227 127 70 18 206
11 281 -15z"/>
<path d="M1376 2664 c-10 -9 -16 -33 -16 -60 0 -31 -4 -44 -14 -44 -21 0 -74
-47 -91 -81 -20 -37 -19 -83 1 -125 19 -41 34 -50 134 -84 59 -20 76 -30 78
-46 8 -59 -84 -74 -142 -23 -26 22 -41 29 -56 24 -27 -9 -43 -50 -30 -75 14
-26 68 -69 96 -76 22 -6 24 -11 24 -58 0 -56 12 -76 45 -76 33 0 45 20 45 74
1 50 2 51 43 71 59 28 87 74 87 142 0 76 -36 112 -135 137 -78 19 -95 30 -95
57 0 46 71 58 128 22 34 -21 65 -13 76 19 8 23 6 32 -14 53 -13 14 -38 30 -57
37 -31 11 -33 15 -33 58 0 66 -36 92 -74 54z"/>
<path d="M2201 1938 c-19 -5 -114 -70 -211 -144 -173 -132 -210 -170 -210
-222 0 -15 -12 -17 -83 -18 -88 -1 -178 -22 -240 -57 -35 -20 -42 -20 -125 -9
-206 30 -212 31 -212 61 0 53 -34 90 -200 217 -193 147 -205 154 -263 154 -60
0 -97 -27 -180 -133 -56 -71 -68 -92 -63 -112 7 -29 39 -49 65 -40 10 3 48 44
85 90 54 69 71 85 93 85 30 0 322 -214 350 -256 20 -30 38 -4 -248 -369 -196
-251 -234 -295 -256 -295 -17 0 -76 38 -180 117 -142 108 -183 145 -183 165 0
4 23 37 51 75 30 38 52 78 52 92 -1 27 -26 51 -55 51 -18 0 -107 -100 -133
-150 -23 -44 -19 -111 8 -151 26 -38 324 -273 376 -296 19 -8 54 -13 79 -11
38 3 47 -1 64 -22 16 -22 17 -30 7 -58 -28 -81 48 -202 127 -202 15 0 24 -8
28 -25 10 -39 64 -94 106 -106 29 -9 41 -20 55 -51 17 -40 69 -82 117 -93 16
-4 31 -18 38 -36 28 -65 124 -97 194 -64 l36 17 45 -41 c53 -49 81 -61 138
-61 52 0 101 29 128 75 18 29 24 33 49 29 59 -12 135 35 159 97 7 20 18 28 50
33 46 7 108 56 117 91 5 19 14 23 54 27 114 11 174 118 127 224 l-18 40 85 86
85 86 44 -16 c66 -24 104 -7 259 109 208 156 234 181 247 233 9 35 8 54 -2 83
-19 56 -509 677 -544 691 -47 17 -76 20 -112 10z m71 -110 c9 -7 122 -150 252
-317 165 -212 236 -310 234 -325 -4 -25 -323 -275 -353 -275 -11 -1 -25 3 -31
7 -6 4 -117 144 -247 310 -225 288 -250 328 -229 357 8 13 288 226 317 243 26
15 38 15 57 0z m-489 -384 l46 -7 201 -258 201 -258 -24 -38 c-25 -40 -132
-143 -147 -143 -5 0 -120 99 -255 220 -135 121 -252 220 -260 220 -8 0 -65
-25 -127 -56 -87 -43 -120 -54 -142 -50 -72 15 -88 80 -35 140 31 36 195 149
279 193 71 37 165 50 263 37z m-583 -45 c83 -12 84 -12 60 -28 -52 -34 -124
-108 -141 -146 -37 -81 -17 -162 54 -219 32 -26 48 -31 105 -34 63 -3 73 0
161 42 l93 46 37 -32 c20 -18 136 -122 257 -230 130 -116 226 -209 233 -227
18 -41 1 -71 -40 -71 -26 0 -52 21 -168 135 -140 137 -163 152 -195 119 -33
-32 -19 -56 104 -179 122 -122 140 -151 108 -183 -30 -30 -61 -13 -163 88 -56
55 -110 100 -119 100 -21 0 -56 -35 -56 -56 0 -9 41 -58 90 -108 91 -93 107
-125 78 -154 -23 -23 -56 -12 -117 43 -34 30 -68 55 -76 55 -19 0 -55 -36 -55
-55 0 -8 16 -32 35 -54 52 -58 44 -101 -20 -101 -36 0 -106 62 -85 75 7 4 21
27 32 51 23 53 13 105 -29 150 -24 25 -27 36 -24 80 4 77 -40 145 -105 163
-19 5 -30 16 -35 35 -11 40 -53 91 -88 106 -23 9 -31 19 -31 38 0 39 -45 107
-84 126 -46 22 -114 20 -151 -3 -16 -10 -64 -48 -105 -85 -41 -36 -78 -66 -82
-66 -4 0 -13 9 -22 21 -13 20 -3 36 202 300 175 225 221 278 237 275 11 -3 58
-10 105 -17z m-215 -562 c0 -20 -25 -49 -118 -131 -65 -59 -122 -106 -127
-106 -17 0 -50 39 -50 60 0 20 197 205 234 220 29 11 61 -11 61 -43z m106
-127 c12 -7 19 -21 19 -38 0 -22 -19 -44 -100 -115 -110 -96 -132 -104 -160
-54 l-15 29 80 74 c77 73 131 114 148 114 5 0 17 -5 28 -10z m155 -165 c14
-21 14 -28 3 -42 -32 -38 -190 -173 -203 -173 -22 0 -46 29 -46 54 0 15 22 42
67 82 128 114 150 123 179 79z m68 -208 c9 -15 3 -25 -44 -67 -62 -56 -104
-66 -116 -28 -6 19 3 31 47 70 57 51 92 59 113 25z"/>
<path d="M308 1559 c-10 -5 -23 -19 -29 -30 -24 -45 52 -94 89 -57 20 20 14
65 -10 82 -26 19 -27 19 -50 5z"/>
</g>
</svg>
