<?xml version="1.0" standalone="no"?>
<!DOCTYPE svg PUBLIC "-//W3C//DTD SVG 20010904//EN"
 "http://www.w3.org/TR/2001/REC-SVG-20010904/DTD/svg10.dtd">
<svg version="1.0" xmlns="http://www.w3.org/2000/svg"
 width="292.000000pt" height="292.000000pt" viewBox="0 0 292.000000 292.000000"
 preserveAspectRatio="xMidYMid meet">

<g transform="translate(0.000000,292.000000) scale(0.100000,-0.100000)"
fill="#000000" stroke="none">
<path d="M334 2640 c-25 -13 -49 -35 -62 -59 -21 -37 -22 -51 -22 -265 l0
-226 25 -16 c13 -8 33 -13 43 -10 36 12 42 49 42 259 0 145 3 206 12 215 9 9
97 12 335 12 l323 0 0 -263 c0 -191 3 -266 12 -275 23 -23 59 -11 162 53 57
36 109 65 115 65 6 0 58 -29 115 -65 102 -64 140 -77 164 -53 9 9 12 84 12
275 l0 263 323 0 c238 0 326 -3 335 -12 9 -9 12 -75 12 -238 l0 -225 -214 0
c-242 0 -252 -3 -290 -79 -16 -33 -17 -45 -8 -85 6 -25 14 -54 17 -63 7 -17
-8 -18 -218 -18 -135 0 -237 -4 -254 -11 -69 -26 -122 -114 -108 -178 6 -26 3
-29 -30 -34 -79 -13 -145 -88 -145 -163 1 -78 62 -147 143 -160 35 -6 38 -9
32 -35 -15 -69 50 -168 123 -183 28 -7 29 -9 25 -49 -7 -60 29 -124 87 -154
l44 -23 398 2 398 3 0 -102 c0 -91 -2 -103 -19 -113 -13 -6 -243 -10 -676 -10
l-657 0 5 23 c15 63 18 119 7 177 -34 195 -190 350 -383 380 -63 10 -88 9
-169 -6 l-28 -6 0 214 c0 232 -6 258 -55 258 -53 0 -55 -11 -55 -278 l0 -247
-41 -30 c-50 -37 -100 -103 -137 -181 -24 -54 -27 -70 -27 -174 0 -109 2 -119
32 -183 45 -95 127 -178 221 -224 66 -33 85 -38 168 -41 74 -4 107 0 162 17
83 25 175 89 222 155 l33 46 696 0 c784 0 742 -4 788 76 20 35 23 53 23 174
l1 135 45 33 c76 56 100 62 251 62 121 0 142 3 171 20 58 36 62 58 62 367 0
245 -2 282 -18 313 -23 48 -71 70 -150 70 -39 0 -75 6 -95 16 -17 10 -84 67
-147 128 l-115 111 -5 267 c-5 293 -5 291 -74 342 -27 21 -36 21 -984 24 -944
2 -958 2 -998 -18z m1166 -291 c0 -157 -3 -199 -12 -193 -7 4 -43 27 -81 51
-37 24 -76 43 -87 43 -11 0 -56 -22 -100 -50 -44 -27 -82 -50 -85 -50 -3 0 -5
90 -5 200 l0 200 185 0 185 0 0 -201z m800 -400 c27 -12 89 -63 157 -130 134
-131 184 -159 286 -159 l67 0 0 -275 0 -275 -128 0 c-160 0 -206 -13 -305 -85
-41 -30 -87 -59 -101 -65 -17 -6 -174 -10 -411 -10 -370 0 -385 1 -395 19 -14
28 -12 52 7 73 14 15 32 18 128 18 113 0 141 8 145 40 4 27 0 38 -16 54 -13
13 -46 16 -204 16 -158 0 -191 3 -204 16 -21 20 -20 53 1 76 14 16 35 18 203
18 204 0 223 5 223 55 0 53 -13 55 -306 55 -166 0 -276 4 -288 10 -23 13 -26
62 -3 84 13 14 54 16 288 16 297 0 309 2 309 55 0 50 -19 55 -222 55 -200 0
-221 5 -221 56 0 55 -5 54 467 54 392 0 438 2 455 17 23 20 23 55 1 76 -14 12
-48 16 -155 19 -135 3 -137 3 -167 32 -30 29 -48 76 -36 96 4 6 76 10 193 10
166 0 192 -3 232 -21z m-1654 -889 c73 -36 126 -91 163 -169 22 -47 26 -70 26
-141 0 -76 -4 -93 -33 -152 -51 -104 -132 -165 -250 -188 -186 -37 -367 91
-403 286 -32 171 86 350 258 394 68 17 170 4 239 -30z"/>
<path d="M582 882 c-15 -16 -52 -58 -82 -95 l-54 -65 -42 30 c-30 21 -48 28
-63 23 -26 -8 -44 -40 -36 -65 7 -23 124 -120 145 -120 29 0 230 234 230 267
0 24 -30 53 -54 53 -10 0 -30 -13 -44 -28z"/>
<path d="M272 1904 c-42 -29 -19 -94 33 -94 34 0 60 41 45 69 -9 17 -39 41
-52 41 -2 0 -14 -7 -26 -16z"/>
</g>
</svg>
