<?xml version="1.0" standalone="no"?>
<!DOCTYPE svg PUBLIC "-//W3C//DTD SVG 20010904//EN"
 "http://www.w3.org/TR/2001/REC-SVG-20010904/DTD/svg10.dtd">
<svg version="1.0" xmlns="http://www.w3.org/2000/svg"
 width="292.000000pt" height="292.000000pt" viewBox="0 0 292.000000 292.000000"
 preserveAspectRatio="xMidYMid meet">

<g transform="translate(0.000000,292.000000) scale(0.100000,-0.100000)"
fill="#000000" stroke="none">
<path d="M397 2909 c-89 -21 -168 -85 -215 -174 l-27 -50 -3 -992 -2 -991 21
-58 c30 -79 104 -153 182 -182 56 -21 73 -22 470 -22 l412 -1 33 -49 c49 -71
178 -191 258 -238 38 -23 112 -56 164 -74 91 -31 101 -32 250 -33 171 0 240
14 365 77 369 185 551 614 422 993 -89 262 -296 462 -552 535 l-60 17 -3 286
-2 285 -319 335 c-176 184 -327 337 -336 341 -26 9 -1015 5 -1058 -5z m983
-312 c0 -228 9 -277 60 -340 18 -20 53 -49 78 -65 47 -27 48 -27 260 -30 l212
-3 0 -237 0 -237 -83 -2 c-151 -4 -331 -68 -456 -162 l-55 -41 -392 0 -393 0
-20 -26 c-27 -34 -26 -40 4 -69 l24 -25 331 0 c181 0 330 -2 330 -5 0 -2 -16
-30 -36 -61 -20 -31 -42 -71 -50 -90 l-14 -34 -283 0 c-307 0 -319 -2 -320
-53 0 -57 1 -57 295 -57 l270 0 -6 -23 c-4 -12 -10 -68 -13 -124 -6 -112 7
-220 37 -309 l19 -54 -360 0 c-241 0 -375 4 -407 12 -67 17 -126 79 -142 149
-8 40 -10 308 -8 999 3 859 5 948 20 975 21 38 76 91 108 104 15 6 214 10 508
10 l482 1 0 -203z m343 -118 c103 -108 187 -199 187 -203 0 -3 -64 -6 -142 -6
-164 0 -213 14 -248 72 -18 30 -20 50 -20 203 0 165 0 169 18 150 10 -11 103
-108 205 -216z m422 -939 c248 -78 431 -273 490 -522 21 -91 19 -238 -5 -332
-60 -236 -240 -426 -478 -504 -64 -21 -97 -25 -197 -26 -143 -1 -199 11 -320
69 -251 122 -398 356 -398 635 0 341 227 621 563 695 91 21 254 13 345 -15z"/>
<path d="M602 1773 c-25 -10 -34 -53 -17 -79 l15 -24 335 0 c334 0 334 0 349
22 21 30 20 44 -4 68 -19 19 -33 20 -342 19 -178 0 -329 -3 -336 -6z"/>
<path d="M1897 1422 c-10 -10 -17 -32 -17 -48 0 -25 -6 -32 -37 -43 -59 -22
-129 -95 -154 -160 -63 -166 62 -356 236 -360 55 -2 117 -32 146 -72 34 -48
34 -130 0 -178 -32 -44 -100 -75 -150 -66 -73 12 -131 71 -131 133 0 35 -37
82 -65 82 -8 0 -25 -10 -36 -21 -18 -18 -21 -29 -16 -70 11 -93 77 -181 163
-216 42 -17 44 -20 44 -58 0 -46 6 -57 38 -74 42 -22 82 18 82 82 0 31 4 35
38 45 54 16 116 73 146 134 20 40 26 67 26 117 -1 147 -96 251 -247 270 -86
11 -125 30 -153 76 -18 30 -22 47 -18 97 4 56 8 64 46 99 38 36 46 39 99 39
40 0 68 -6 90 -20 37 -22 73 -86 73 -129 0 -20 8 -35 22 -45 77 -54 117 51 62
162 -30 60 -92 118 -145 133 -31 10 -38 17 -42 46 -4 19 -11 41 -18 49 -16 20
-63 17 -82 -4z"/>
</g>
</svg>
