<?xml version="1.0" standalone="no"?>
<!DOCTYPE svg PUBLIC "-//W3C//DTD SVG 20010904//EN"
 "http://www.w3.org/TR/2001/REC-SVG-20010904/DTD/svg10.dtd">
<svg version="1.0" xmlns="http://www.w3.org/2000/svg"
 width="292.000000pt" height="292.000000pt" viewBox="0 0 292.000000 292.000000"
 preserveAspectRatio="xMidYMid meet">

<g transform="translate(0.000000,292.000000) scale(0.100000,-0.100000)"
fill="#000000" stroke="none">
<path d="M307 2910 c-110 -28 -218 -124 -257 -228 -17 -45 -21 -73 -18 -137 6
-142 77 -247 206 -308 58 -27 78 -32 147 -31 105 0 183 33 255 110 76 81 95
129 95 244 0 85 -3 101 -29 153 -36 70 -108 140 -179 172 -59 27 -163 39 -220
25z m188 -128 c89 -46 135 -122 135 -224 0 -80 -24 -132 -83 -184 -123 -109
-303 -76 -382 68 -74 135 -8 301 140 356 44 17 144 8 190 -16z"/>
<path d="M1132 2904 c-22 -15 -22 -15 -22 -344 0 -329 0 -329 22 -344 19 -14
69 -16 339 -16 293 0 317 1 332 18 15 17 17 55 17 344 0 302 -1 326 -18 341
-16 15 -54 17 -333 17 -269 0 -318 -2 -337 -16z m588 -344 l0 -250 -250 0
-250 0 0 250 0 250 250 0 250 0 0 -250z"/>
<path d="M2483 2863 c-45 -63 -333 -572 -333 -587 0 -9 9 -25 20 -36 19 -19
33 -20 354 -20 322 0 334 1 360 21 14 11 26 26 26 33 0 6 -78 147 -173 311
-164 284 -174 300 -204 303 -24 2 -35 -3 -50 -25z m168 -340 l108 -188 -226
-3 c-124 -1 -228 0 -230 2 -2 2 46 92 109 200 66 115 116 192 121 187 5 -5 58
-94 118 -198z"/>
<path d="M343 2068 c-11 -13 -41 -53 -66 -89 -47 -67 -57 -105 -35 -127 15
-15 61 -15 76 0 9 9 12 -65 12 -333 0 -282 3 -349 14 -365 14 -18 31 -19 303
-22 178 -2 300 1 316 7 35 13 46 55 22 81 -17 19 -33 20 -282 20 l-263 0 0
312 c0 243 3 309 12 300 30 -30 88 -2 88 41 0 12 -30 61 -65 110 -71 95 -94
106 -132 65z"/>
<path d="M1417 2058 c-116 -157 -122 -171 -91 -202 18 -19 55 -21 72 -4 9 9
12 -7 12 -73 0 -94 15 -129 55 -129 44 0 55 23 55 120 l0 88 30 -11 c39 -15
64 0 68 40 2 23 -11 47 -60 114 -75 100 -101 111 -141 57z"/>
<path d="M2523 2082 c-21 -13 -133 -176 -133 -193 0 -35 68 -66 85 -39 21 34
25 -14 25 -300 l0 -310 -270 0 -270 0 -15 -24 c-19 -28 -9 -58 25 -76 11 -6
128 -10 302 -10 240 0 287 2 306 16 l22 15 0 350 c0 192 4 349 8 349 4 0 13
-5 19 -11 18 -18 56 -6 72 22 14 25 12 29 -43 107 -81 115 -96 127 -133 104z"/>
<path d="M1368 1517 c-100 -38 -158 -89 -206 -181 -22 -43 -27 -67 -30 -157
-5 -120 10 -190 53 -253 14 -21 25 -39 23 -40 -2 -2 -32 -8 -68 -14 -185 -33
-348 -186 -389 -363 -15 -65 -14 -442 1 -457 9 -9 181 -12 714 -12 l703 0 15
22 c21 29 20 77 0 106 -21 31 -75 27 -89 -5 -10 -23 -11 -23 -222 -23 l-212 0
-6 33 c-3 17 -19 109 -34 202 l-29 170 44 47 c54 58 56 83 9 128 -19 19 -35
38 -35 43 0 5 44 8 103 5 132 -5 191 -30 282 -123 35 -36 68 -65 72 -65 21 0
53 33 53 54 0 32 -49 97 -106 140 -66 51 -139 83 -222 98 l-72 13 25 38 c35
50 52 101 60 178 25 237 -112 416 -324 426 -48 2 -89 -2 -113 -10z m190 -113
c47 -19 88 -58 115 -109 25 -48 35 -179 18 -241 -46 -171 -261 -231 -385 -108
-53 54 -66 93 -66 204 0 109 10 145 54 196 57 69 177 95 264 58z m-267 -679
c-22 -24 -41 -52 -41 -60 0 -9 21 -38 46 -65 l47 -50 -34 -205 -33 -205 -213
0 -213 0 0 170 c0 199 13 247 86 329 90 100 160 130 303 131 l94 0 -42 -45z
m221 -107 l-42 -42 -45 44 -45 44 42 43 42 43 46 -45 45 -45 -43 -42z m-12
-170 c0 -2 11 -68 25 -148 14 -80 25 -148 25 -152 0 -5 -36 -8 -80 -8 -69 0
-80 2 -80 18 0 9 10 79 22 155 l22 137 33 0 c18 0 33 -1 33 -2z"/>
<path d="M2112 434 c-27 -18 -29 -55 -4 -77 22 -20 42 -21 66 -4 35 26 14 97
-29 97 -6 0 -21 -7 -33 -16z"/>
</g>
</svg>
